<?xml version="1.0" encoding="UTF-8" standalone="no"?>
<!-- Created with Inkscape (http://www.inkscape.org/) -->

<svg
   version="1.1"
   id="svg9"
   xml:space="preserve"
   width="653.91064"
   height="514.85864"
   viewBox="0 0 653.91064 514.85864"
   xmlns="http://www.w3.org/2000/svg"
   xmlns:svg="http://www.w3.org/2000/svg"><defs
     id="defs13"><clipPath
       clipPathUnits="userSpaceOnUse"
       id="clipPath33"><path
         d="M 0,386.144 H 490.433 V 0 H 0 Z"
         id="path31" /></clipPath></defs><g
     id="g15"
     transform="matrix(1.3333333,0,0,-1.3333333,0,514.85867)"><g
       id="g17"
       transform="translate(65.0588,68.6157)"><path
         d="M 0,0 H 11.534 L 5.767,14.887 Z m 22.971,-14.073 h -5.99 L 13.58,-5.274 H -2.046 l -3.401,-8.799 h -5.792 l 13.63,34.506 h 6.95 z"
         style="fill:#000147;fill-opacity:1;fill-rule:nonzero;stroke:none"
         id="path19" /></g><path
       d="M 106.488,65.337 H 92.193 v 4.683 h 14.295 z"
       style="fill:#000147;fill-opacity:1;fill-rule:nonzero;stroke:none"
       id="path21" /><g
       id="g23"
       transform="translate(140.2531,54.5424)"><path
         d="m 0,0 h -24.672 v 34.506 h 5.57 V 5.274 L 0,5.274 Z"
         style="fill:#000147;fill-opacity:1;fill-rule:nonzero;stroke:none"
         id="path25" /></g><g
       id="g27"><g
         id="g29"
         clip-path="url(#clipPath33)"><g
           id="g35"
           transform="translate(150.0607,68.3696)"><path
             d="M 0,0 H 12.25 C 11.683,3.672 9.538,5.816 6.26,5.816 2.588,5.816 0.542,3.45 0,0 m 17.523,-1.997 c 0,-0.665 -0.048,-1.331 -0.098,-1.923 H -0.024 c 0.689,-4.239 3.671,-6.014 7.023,-6.014 2.366,0 4.881,0.938 6.828,2.49 l 2.564,-3.672 c -2.884,-2.465 -6.138,-3.327 -9.711,-3.327 -7.075,0 -12.078,4.928 -12.078,12.422 0,7.394 4.806,12.421 11.756,12.421 6.607,0 11.141,-5.027 11.165,-12.397"
             style="fill:#000147;fill-opacity:1;fill-rule:nonzero;stroke:none"
             id="path37" /></g><g
           id="g39"
           transform="translate(186.9807,54.5424)"><path
             d="m 0,0 h -6.112 l -9.49,23.611 h 5.62 L -3.007,5.348 3.968,23.611 h 5.471 z"
             style="fill:#000147;fill-opacity:1;fill-rule:nonzero;stroke:none"
             id="path41" /></g><g
           id="g43"
           transform="translate(205.6125,68.3696)"><path
             d="M 0,0 H 12.249 C 11.683,3.672 9.538,5.816 6.26,5.816 2.587,5.816 0.542,3.45 0,0 m 17.523,-1.997 c 0,-0.665 -0.048,-1.331 -0.098,-1.923 h -17.45 c 0.69,-4.239 3.672,-6.014 7.024,-6.014 2.366,0 4.881,0.938 6.827,2.49 l 2.564,-3.672 c -2.884,-2.465 -6.137,-3.327 -9.711,-3.327 -7.074,0 -12.077,4.928 -12.077,12.422 0,7.394 4.806,12.421 11.756,12.421 6.606,0 11.141,-5.027 11.165,-12.397"
             style="fill:#000147;fill-opacity:1;fill-rule:nonzero;stroke:none"
             id="path45" /></g><path
           d="m 235.827,54.542 h -5.176 v 35.491 h 5.176 z"
           style="fill:#000147;fill-opacity:1;fill-rule:nonzero;stroke:none"
           id="path47" /><g
           id="g49"
           transform="translate(290.6164,82.4673)"><path
             d="m 0,0 -4.659,-3.105 c -2.095,3.055 -5.521,4.978 -9.637,4.978 -7.049,0 -12.225,-5.102 -12.225,-12.545 0,-7.443 5.176,-12.546 12.225,-12.546 4.092,0 7.469,1.849 9.612,4.954 l 4.536,-3.327 c -2.933,-4.313 -8.109,-6.975 -14.148,-6.975 -10.598,0 -18.066,7.591 -18.066,17.894 0,10.303 7.468,17.894 18.066,17.894 C -8.158,7.222 -2.711,4.486 0,0"
             style="fill:#000147;fill-opacity:1;fill-rule:nonzero;stroke:none"
             id="path51" /></g><g
           id="g53"
           transform="translate(301.4836,66.3481)"><path
             d="m 0,0 c 0,-4.141 2.687,-7.566 7.123,-7.566 4.264,0 7.122,3.253 7.122,7.566 0,4.313 -2.858,7.566 -7.122,7.566 C 2.687,7.566 0,4.141 0,0 m 19.076,-11.806 h -5.15 v 2.834 c -1.627,-2.094 -4.068,-3.45 -7.419,-3.45 -6.606,0 -11.807,5.2 -11.807,12.422 0,7.222 5.201,12.422 11.807,12.422 3.351,0 5.792,-1.38 7.419,-3.475 v 2.859 h 5.15 z"
             style="fill:#000147;fill-opacity:1;fill-rule:nonzero;stroke:none"
             id="path55" /></g><g
           id="g57"
           transform="translate(334.5822,66.3481)"><path
             d="m 0,0 c 0,-4.313 2.858,-7.566 7.123,-7.566 4.437,0 7.123,3.425 7.123,7.566 0,4.141 -2.686,7.566 -7.123,7.566 C 2.858,7.566 0,4.313 0,0 m 19.545,0 c 0,-7.222 -5.2,-12.422 -11.806,-12.422 -3.352,0 -5.767,1.356 -7.394,3.426 v -12.669 h -5.152 v 33.471 h 5.152 v -2.81 c 1.627,2.07 4.042,3.426 7.394,3.426 6.606,0 11.806,-5.2 11.806,-12.422"
             style="fill:#000147;fill-opacity:1;fill-rule:nonzero;stroke:none"
             id="path59" /></g><path
           d="m 366.818,54.542 h -5.176 v 23.611 h 5.176 z m 1.036,31.77 c 0,-2.045 -1.603,-3.599 -3.649,-3.599 -2.046,0 -3.598,1.554 -3.598,3.599 0,2.046 1.552,3.648 3.598,3.648 2.046,0 3.649,-1.602 3.649,-3.648"
           style="fill:#000147;fill-opacity:1;fill-rule:nonzero;stroke:none"
           id="path61" /><g
           id="g63"
           transform="translate(392.1291,73.4712)"><path
             d="m 0,0 h -9.046 v -10.278 c 0,-3.179 1.677,-4.411 3.747,-4.411 1.602,0 3.352,0.714 4.757,1.601 l 2.046,-4.116 c -1.898,-1.281 -4.289,-2.341 -7.246,-2.341 -5.349,0 -8.479,2.883 -8.479,9.168 V 0 h -4.708 v 4.683 h 4.708 v 7.147 h 5.175 V 4.683 l 9.046,0 z"
             style="fill:#000147;fill-opacity:1;fill-rule:nonzero;stroke:none"
             id="path65" /></g><g
           id="g67"
           transform="translate(403.1457,66.3481)"><path
             d="m 0,0 c 0,-4.141 2.686,-7.566 7.123,-7.566 4.264,0 7.122,3.253 7.122,7.566 0,4.313 -2.858,7.566 -7.122,7.566 C 2.686,7.566 0,4.141 0,0 m 19.076,-11.806 h -5.15 v 2.834 c -1.628,-2.094 -4.068,-3.45 -7.419,-3.45 -6.607,0 -11.807,5.2 -11.807,12.422 0,7.222 5.2,12.422 11.807,12.422 3.351,0 5.791,-1.38 7.419,-3.475 v 2.859 h 5.15 z"
             style="fill:#000147;fill-opacity:1;fill-rule:nonzero;stroke:none"
             id="path69" /></g><path
           d="m 436.613,54.542 h -5.176 v 35.491 h 5.176 z"
           style="fill:#000147;fill-opacity:1;fill-rule:nonzero;stroke:none"
           id="path71" /><g
           id="g73"
           transform="translate(370.1369,121.644)"><path
             d="m 0,0 h -25.841 c -0.785,0 -1.515,0.437 -1.934,1.157 l -103.365,177.722 -0.112,-0.19 -8.668,14.628 c -0.478,0.809 -0.485,1.845 -0.016,2.661 l 13.041,22.67 c 0.894,1.554 2.975,1.559 3.876,0.011 L 1.935,3.812 C 2.897,2.156 1.802,0 0,0"
             style="fill:#000147;fill-opacity:1;fill-rule:nonzero;stroke:none"
             id="path75" /></g><g
           id="g77"
           transform="translate(282.3362,191.4673)"><path
             d="m 0,0 h -16.46 c -1.802,0 -2.896,-2.157 -1.935,-3.812 l 1.165,-2 c 0.961,-1.654 -0.133,-3.811 -1.936,-3.811 h -38.568 c -1.803,0 -2.898,2.156 -1.936,3.811 l 19.285,33.157 c 0.898,1.544 2.972,1.544 3.87,0 l 1.123,-1.931 c 0.419,-0.721 1.15,-1.158 1.935,-1.158 h 16.46 c 1.802,0 2.896,2.157 1.934,3.811 l -21.453,36.881 c -0.897,1.544 -2.971,1.544 -3.869,0 l -53.208,-91.479 c -0.963,-1.656 0.132,-3.812 1.935,-3.812 H 14.758 c 1.803,0 2.897,2.156 1.935,3.812 L 1.935,-1.158 C 1.516,-0.437 0.785,0 0,0"
             style="fill:#7192a5;fill-opacity:1;fill-rule:nonzero;stroke:none"
             id="path79" /></g><g
           id="g81"
           transform="translate(222.0197,297.0161)"><path
             d="m 0,0 12.924,-22.219 c 0.472,-0.81 0.472,-1.843 0,-2.653 l -86.865,-149.343 c -0.419,-0.721 -1.15,-1.157 -1.935,-1.157 h -25.848 c -1.801,0 -2.897,2.156 -1.934,3.811 L -3.87,0 C -2.972,1.544 -0.898,1.544 0,0"
             style="fill:#2d0a51;fill-opacity:1;fill-rule:nonzero;stroke:none"
             id="path83" /></g><g
           id="g85"
           transform="translate(124.0588,125.5473)"><path
             d="m 0,0 13.49,21.164 c 0.427,0.67 1.129,1.069 1.878,1.071 l 168.022,0.308 c 0.789,0.002 1.522,-0.438 1.941,-1.162 L 197.648,0.104 c 0.958,-1.654 -0.135,-3.805 -1.934,-3.807 L 1.884,-3.899 C 0.036,-3.901 -1.052,-1.649 0,0"
             style="fill:#2d0a51;fill-opacity:1;fill-rule:nonzero;stroke:none"
             id="path87" /></g></g></g></g></svg>
