<svg width="403" height="65" viewBox="0 0 403 65" fill="none" xmlns="http://www.w3.org/2000/svg">
<g clip-path="url(#clip0_57_229)">
<path d="M120.596 48.2267H115.745L112.985 41.1292H100.324L97.57 48.2267H92.8721L103.942 20.3922H109.573L120.596 48.2267ZM101.98 36.8731H111.323L106.625 24.8646L101.98 36.8731Z" fill="#000147"/>
<path d="M135.547 35.7389H123.966V39.5156H135.547V35.7389Z" fill="#000147"/>
<path d="M162.901 48.2267H142.917V20.3922H147.427V43.9706H162.901V48.2267Z" fill="#000147"/>
<path d="M185.046 38.6855C185.046 39.2233 185.005 39.7612 184.963 40.2347H170.829C171.416 43.6549 173.806 45.0872 176.519 45.0872C178.533 45.0413 180.476 44.3343 182.045 43.0761L184.124 46.0402C181.928 47.879 179.122 48.8359 176.255 48.7237C170.523 48.7237 166.471 44.7481 166.471 38.703C166.471 32.6578 170.365 28.6823 175.996 28.6823C181.346 28.6823 185.022 32.7397 185.04 38.6796L185.046 38.6855ZM170.84 37.066H180.765C180.307 34.1019 178.568 32.3889 175.914 32.3889C172.937 32.3889 171.281 34.3007 170.84 37.066Z" fill="#000147"/>
<path d="M200.76 48.2268H195.81L188.123 29.1793H192.674L198.323 43.9121L203.972 29.1793H208.406L200.76 48.2268Z" fill="#000147"/>
<path d="M230.051 38.6855C230.051 39.2233 230.01 39.7612 229.969 40.2347H215.834C216.422 43.6549 218.812 45.0872 221.525 45.0872C223.54 45.0438 225.485 44.3389 227.057 43.0819L229.135 46.046C226.94 47.8848 224.133 48.8417 221.266 48.7295C215.535 48.7295 211.483 44.754 211.483 38.7088C211.483 32.6637 215.376 28.6882 221.008 28.6882C226.358 28.6882 230.034 32.7455 230.051 38.6855ZM215.852 37.0719H225.776C225.318 34.1077 223.58 32.3948 220.926 32.3948C217.948 32.3948 216.292 34.3065 215.852 37.0719Z" fill="#000147"/>
<path d="M240.334 19.597H236.141V48.2209H240.334V19.597Z" fill="#000147"/>
<path d="M284.718 25.724L280.942 28.2321C280.076 26.9713 278.909 25.9442 277.546 25.2432C276.182 24.5422 274.666 24.1891 273.132 24.2157C267.424 24.2157 263.225 28.3081 263.225 34.3358C263.225 40.3634 267.429 44.4324 273.137 44.4324C274.667 44.464 276.179 44.1154 277.539 43.4182C278.899 42.7209 280.062 41.6971 280.924 40.4394L284.6 43.1229C282.251 46.6307 278.029 48.7471 273.137 48.7471C264.552 48.7471 258.503 42.6259 258.503 34.3124C258.503 25.9988 264.552 19.8777 273.137 19.8777C278.111 19.8777 282.533 22.0818 284.718 25.724Z" fill="#000147"/>
<path d="M308.977 48.2267H304.778V45.9408C304.071 46.8461 303.157 47.5706 302.112 48.0545C301.067 48.5385 299.922 48.7678 298.771 48.7237C293.421 48.7237 289.205 44.5318 289.205 38.703C289.205 32.8742 293.415 28.6823 298.771 28.6823C299.924 28.6419 301.07 28.8753 302.115 29.3633C303.159 29.8512 304.072 30.5797 304.778 31.4886V29.1793H308.954L308.977 48.2267ZM293.527 38.703C293.527 42.0413 295.705 44.8066 299.299 44.8066C302.752 44.8066 305.072 42.1816 305.072 38.703C305.072 35.2244 302.758 32.5994 299.299 32.5994C295.705 32.5994 293.527 35.3647 293.527 38.703Z" fill="#000147"/>
<path d="M336.172 38.703C336.172 44.5494 331.955 48.7237 326.606 48.7237C325.462 48.7643 324.324 48.5349 323.286 48.0543C322.248 47.5737 321.339 46.8555 320.633 45.9584V56.1778H316.458V29.1793H320.633V31.4477C321.341 30.5481 322.253 29.8284 323.294 29.3477C324.335 28.867 325.476 28.6389 326.623 28.6823C331.973 28.6823 336.189 32.8742 336.189 38.703H336.172ZM320.334 38.703C320.334 42.2108 322.648 44.8066 326.106 44.8066C329.7 44.8066 331.879 42.0413 331.879 38.703C331.879 35.3647 329.7 32.5994 326.106 32.5994C322.653 32.5994 320.334 35.2244 320.334 38.703Z" fill="#000147"/>
<path d="M347.294 22.6021C347.301 22.9877 347.229 23.3707 347.084 23.7282C346.938 24.0857 346.722 24.4105 346.449 24.6832C346.175 24.9559 345.848 25.171 345.489 25.3156C345.13 25.4603 344.745 25.5316 344.358 25.5253C343.97 25.5357 343.583 25.4673 343.222 25.3241C342.861 25.1809 342.533 24.966 342.259 24.6924C341.984 24.4188 341.768 24.0924 341.624 23.733C341.48 23.3736 341.411 22.9888 341.422 22.6021C341.416 22.2165 341.487 21.8335 341.632 21.476C341.778 21.1185 341.994 20.7937 342.268 20.521C342.542 20.2483 342.868 20.0332 343.227 19.8885C343.586 19.7439 343.971 19.6726 344.358 19.6789C345.137 19.6789 345.884 19.9869 346.434 20.5351C346.985 21.0833 347.294 21.8268 347.294 22.6021ZM346.472 48.2268H342.279V29.1793H346.472V48.2268Z" fill="#000147"/>
<path d="M366.961 32.956H359.632V41.2462C359.632 43.8127 360.989 44.8066 362.668 44.8066C364.045 44.7287 365.376 44.2824 366.52 43.5146L368.2 46.8353C366.482 48.0461 364.432 48.705 362.327 48.7237C357.994 48.7237 355.457 46.3851 355.457 41.328V32.956H351.646V29.1793H355.457V23.4147H359.65V29.1793H366.978L366.961 32.956Z" fill="#000147"/>
<path d="M391.343 48.2267H387.174V45.9408C386.466 46.8461 385.552 47.5706 384.508 48.0545C383.463 48.5385 382.318 48.7678 381.166 48.7237C375.817 48.7237 371.6 44.5318 371.6 38.703C371.6 32.8742 375.834 28.6823 381.16 28.6823C382.313 28.6412 383.459 28.8737 384.504 29.3606C385.548 29.8476 386.461 30.575 387.168 31.4827V29.1793H391.337L391.343 48.2267ZM375.887 38.703C375.887 42.0413 378.06 44.8066 381.66 44.8066C385.113 44.8066 387.432 42.1816 387.432 38.703C387.432 35.2244 385.118 32.5994 381.66 32.5994C378.066 32.5994 375.887 35.3647 375.887 38.703Z" fill="#000147"/>
<path d="M403 19.597H398.807V48.2209H403V19.597Z" fill="#000147"/>
<path d="M74.8908 65H67.2156C67.0957 65.0002 66.9779 64.9682 66.8746 64.9075C66.7713 64.8469 66.6862 64.7597 66.6284 64.6551L35.9391 12.1078L35.9039 12.1663L33.3318 7.83999C33.2622 7.72 33.2256 7.5839 33.2256 7.44536C33.2256 7.30681 33.2622 7.17071 33.3318 7.05073L37.2017 0.344934C37.255 0.2349 37.3383 0.14206 37.4422 0.0770868C37.5461 0.0121138 37.6663 -0.0223541 37.789 -0.0223541C37.9116 -0.0223541 38.0318 0.0121138 38.1357 0.0770868C38.2396 0.14206 38.3229 0.2349 38.3762 0.344934L75.4898 63.8775C75.5586 63.9862 75.5977 64.1109 75.6031 64.2392C75.6085 64.3675 75.5802 64.495 75.5208 64.6091C75.4614 64.7232 75.3732 64.8198 75.2647 64.8894C75.1563 64.959 75.0314 64.9991 74.9026 65.0058" fill="#000147"/>
<path d="M48.8114 44.3565H43.9197C43.7908 44.3632 43.666 44.4033 43.5575 44.4729C43.4491 44.5425 43.3608 44.6391 43.3014 44.7532C43.2421 44.8672 43.2137 44.9948 43.2192 45.1231C43.2246 45.2514 43.2636 45.3761 43.3324 45.4848L43.6789 46.0694C43.7477 46.1781 43.7867 46.3028 43.7921 46.4311C43.7976 46.5595 43.7692 46.687 43.7099 46.801C43.6505 46.9151 43.5622 47.0117 43.4538 47.0813C43.3453 47.1509 43.2205 47.1911 43.0916 47.1978H31.6639C31.5351 47.1911 31.4102 47.1509 31.3018 47.0813C31.1934 47.0117 31.1051 46.9151 31.0457 46.801C30.9864 46.687 30.958 46.5595 30.9634 46.4311C30.9689 46.3028 31.0079 46.1781 31.0767 46.0694L36.814 36.2475C36.8673 36.1375 36.9506 36.0447 37.0545 35.9797C37.1584 35.9147 37.2786 35.8802 37.4013 35.8802C37.524 35.8802 37.6441 35.9147 37.748 35.9797C37.8519 36.0447 37.9353 36.1375 37.9885 36.2475L38.3232 36.8322C38.3819 36.9357 38.4672 37.0217 38.5705 37.0813C38.6737 37.1409 38.7911 37.172 38.9105 37.1713H43.8022C43.931 37.1645 44.0559 37.1244 44.1643 37.0548C44.2728 36.9852 44.3611 36.8886 44.4204 36.7745C44.4798 36.6605 44.5081 36.5329 44.5027 36.4046C44.4973 36.2763 44.4582 36.1516 44.3894 36.0429L37.965 25.1394C37.9118 25.0294 37.8284 24.9365 37.7245 24.8716C37.6207 24.8066 37.5005 24.7721 37.3778 24.7721C37.2551 24.7721 37.1349 24.8066 37.031 24.8716C36.9271 24.9365 36.8438 25.0294 36.7905 25.1394L21.0114 52.2023C20.9426 52.311 20.9035 52.4357 20.8981 52.564C20.8927 52.6923 20.9211 52.8198 20.9804 52.9339C21.0398 53.0479 21.128 53.1446 21.2365 53.2142C21.3449 53.2838 21.4698 53.3239 21.5986 53.3306H53.1922C53.321 53.3239 53.4459 53.2838 53.5543 53.2142C53.6628 53.1446 53.751 53.0479 53.8104 52.9339C53.8698 52.8198 53.8981 52.6923 53.8927 52.564C53.8873 52.4357 53.8482 52.311 53.7794 52.2023L49.3869 44.6955C49.329 44.5909 49.244 44.5037 49.1407 44.4431C49.0374 44.3824 48.9196 44.3505 48.7996 44.3506" fill="#7192A5"/>
<path d="M30.8947 13.1426L34.7352 19.714C34.8037 19.8333 34.8398 19.9683 34.8398 20.1057C34.8398 20.2431 34.8037 20.3781 34.7352 20.4974L8.93188 64.6609C8.87401 64.7655 8.78897 64.8527 8.68567 64.9134C8.58236 64.9741 8.46458 65.006 8.34464 65.0058H0.68114C0.552295 64.9991 0.427456 64.959 0.319012 64.8894C0.210568 64.8198 0.122287 64.7231 0.0629307 64.6091C0.00357397 64.495 -0.0247957 64.3675 -0.0193633 64.2392C-0.0139309 64.1109 0.0251147 63.9862 0.0938992 63.8775L29.7437 13.1426C29.7969 13.0326 29.8803 12.9398 29.9842 12.8748C30.0881 12.8098 30.2083 12.7754 30.3309 12.7754C30.4536 12.7754 30.5738 12.8098 30.6777 12.8748C30.7816 12.9398 30.8649 13.0326 30.9182 13.1426" fill="#2D0A51"/>
<path d="M1.79697 63.8483L5.80783 57.5868C5.86682 57.4919 5.94882 57.4132 6.0463 57.3581C6.14377 57.3029 6.2536 57.273 6.36571 57.2711L56.2812 57.1776C56.4011 57.1774 56.5189 57.2093 56.6222 57.27C56.7255 57.3307 56.8106 57.4179 56.8684 57.5225L60.4858 63.819C60.5546 63.9277 60.5937 64.0524 60.5991 64.1807C60.6045 64.3091 60.5762 64.4366 60.5168 64.5506C60.4574 64.6647 60.3692 64.7613 60.2607 64.8309C60.1523 64.9005 60.0274 64.9406 59.8986 64.9474L2.34898 65.0058C2.21441 65.0017 2.08346 64.9615 1.97004 64.8893C1.85661 64.8171 1.76492 64.7156 1.70471 64.5958C1.6445 64.4759 1.61801 64.342 1.62805 64.2083C1.63809 64.0747 1.68429 63.9462 1.76174 63.8366" fill="#2D0A51"/>
<path d="M120.596 48.2267H115.745L112.985 41.1292H100.324L97.57 48.2267H92.8721L103.942 20.3922H109.573L120.596 48.2267ZM101.98 36.8731H111.323L106.625 24.8646L101.98 36.8731Z" fill="#000147"/>
<path d="M135.547 35.7389H123.966V39.5156H135.547V35.7389Z" fill="#000147"/>
<path d="M162.901 48.2267H142.917V20.3922H147.427V43.9706H162.901V48.2267Z" fill="#000147"/>
<path d="M185.046 38.6855C185.046 39.2233 185.005 39.7612 184.963 40.2347H170.829C171.416 43.6549 173.806 45.0872 176.519 45.0872C178.533 45.0413 180.476 44.3343 182.045 43.0761L184.124 46.0402C181.928 47.879 179.122 48.8359 176.255 48.7237C170.523 48.7237 166.471 44.7481 166.471 38.703C166.471 32.6578 170.365 28.6823 175.996 28.6823C181.346 28.6823 185.022 32.7397 185.04 38.6796L185.046 38.6855ZM170.84 37.066H180.765C180.307 34.1019 178.568 32.3889 175.914 32.3889C172.937 32.3889 171.281 34.3007 170.84 37.066Z" fill="#000147"/>
<path d="M200.76 48.2268H195.81L188.123 29.1793H192.674L198.323 43.9121L203.972 29.1793H208.406L200.76 48.2268Z" fill="#000147"/>
<path d="M230.051 38.6855C230.051 39.2233 230.01 39.7612 229.969 40.2347H215.834C216.422 43.6549 218.812 45.0872 221.525 45.0872C223.54 45.0438 225.485 44.3389 227.057 43.0819L229.135 46.046C226.94 47.8848 224.133 48.8417 221.266 48.7295C215.535 48.7295 211.483 44.754 211.483 38.7088C211.483 32.6637 215.376 28.6882 221.008 28.6882C226.358 28.6882 230.034 32.7455 230.051 38.6855ZM215.852 37.0719H225.776C225.318 34.1077 223.58 32.3948 220.926 32.3948C217.948 32.3948 216.292 34.3065 215.852 37.0719Z" fill="#000147"/>
<path d="M240.334 19.597H236.141V48.2209H240.334V19.597Z" fill="#000147"/>
<path d="M284.718 25.724L280.942 28.2321C280.076 26.9713 278.909 25.9442 277.546 25.2432C276.182 24.5422 274.666 24.1891 273.132 24.2157C267.424 24.2157 263.225 28.3081 263.225 34.3358C263.225 40.3634 267.429 44.4324 273.137 44.4324C274.667 44.464 276.179 44.1154 277.539 43.4182C278.899 42.7209 280.062 41.6971 280.924 40.4394L284.6 43.1229C282.251 46.6307 278.029 48.7471 273.137 48.7471C264.552 48.7471 258.503 42.6259 258.503 34.3124C258.503 25.9988 264.552 19.8777 273.137 19.8777C278.111 19.8777 282.533 22.0818 284.718 25.724Z" fill="#000147"/>
<path d="M308.977 48.2267H304.778V45.9408C304.071 46.8461 303.157 47.5706 302.112 48.0545C301.067 48.5385 299.922 48.7678 298.771 48.7237C293.421 48.7237 289.205 44.5318 289.205 38.703C289.205 32.8742 293.415 28.6823 298.771 28.6823C299.924 28.6419 301.07 28.8753 302.115 29.3633C303.159 29.8512 304.072 30.5797 304.778 31.4886V29.1793H308.954L308.977 48.2267ZM293.527 38.703C293.527 42.0413 295.705 44.8066 299.299 44.8066C302.752 44.8066 305.072 42.1816 305.072 38.703C305.072 35.2244 302.758 32.5994 299.299 32.5994C295.705 32.5994 293.527 35.3647 293.527 38.703Z" fill="#000147"/>
<path d="M336.172 38.703C336.172 44.5494 331.955 48.7237 326.606 48.7237C325.462 48.7643 324.324 48.5349 323.286 48.0543C322.248 47.5737 321.339 46.8555 320.633 45.9584V56.1778H316.458V29.1793H320.633V31.4477C321.341 30.5481 322.253 29.8284 323.294 29.3477C324.335 28.867 325.476 28.6389 326.623 28.6823C331.973 28.6823 336.189 32.8742 336.189 38.703H336.172ZM320.334 38.703C320.334 42.2108 322.648 44.8066 326.106 44.8066C329.7 44.8066 331.879 42.0413 331.879 38.703C331.879 35.3647 329.7 32.5994 326.106 32.5994C322.653 32.5994 320.334 35.2244 320.334 38.703Z" fill="#000147"/>
<path d="M347.294 22.6021C347.301 22.9877 347.229 23.3707 347.084 23.7282C346.938 24.0857 346.722 24.4105 346.449 24.6832C346.175 24.9559 345.848 25.171 345.489 25.3156C345.13 25.4603 344.745 25.5316 344.358 25.5253C343.97 25.5357 343.583 25.4673 343.222 25.3241C342.861 25.1809 342.533 24.966 342.259 24.6924C341.984 24.4188 341.768 24.0924 341.624 23.733C341.48 23.3736 341.411 22.9888 341.422 22.6021C341.416 22.2165 341.487 21.8335 341.632 21.476C341.778 21.1185 341.994 20.7937 342.268 20.521C342.542 20.2483 342.868 20.0332 343.227 19.8885C343.586 19.7439 343.971 19.6726 344.358 19.6789C345.137 19.6789 345.884 19.9869 346.434 20.5351C346.985 21.0833 347.294 21.8268 347.294 22.6021ZM346.472 48.2268H342.279V29.1793H346.472V48.2268Z" fill="#000147"/>
<path d="M366.961 32.956H359.632V41.2462C359.632 43.8127 360.989 44.8066 362.668 44.8066C364.045 44.7287 365.376 44.2824 366.52 43.5146L368.2 46.8353C366.482 48.0461 364.432 48.705 362.327 48.7237C357.994 48.7237 355.457 46.3851 355.457 41.328V32.956H351.646V29.1793H355.457V23.4147H359.65V29.1793H366.978L366.961 32.956Z" fill="#000147"/>
<path d="M391.343 48.2267H387.174V45.9408C386.466 46.8461 385.552 47.5706 384.508 48.0545C383.463 48.5385 382.318 48.7678 381.166 48.7237C375.817 48.7237 371.6 44.5318 371.6 38.703C371.6 32.8742 375.834 28.6823 381.16 28.6823C382.313 28.6412 383.459 28.8737 384.504 29.3606C385.548 29.8476 386.461 30.575 387.168 31.4827V29.1793H391.337L391.343 48.2267ZM375.887 38.703C375.887 42.0413 378.06 44.8066 381.66 44.8066C385.113 44.8066 387.432 42.1816 387.432 38.703C387.432 35.2244 385.118 32.5994 381.66 32.5994C378.066 32.5994 375.887 35.3647 375.887 38.703Z" fill="#000147"/>
<path d="M403 19.597H398.807V48.2209H403V19.597Z" fill="#000147"/>
<path d="M74.8908 65H67.2156C67.0957 65.0002 66.9779 64.9682 66.8746 64.9075C66.7713 64.8469 66.6862 64.7597 66.6284 64.6551L35.9391 12.1078L35.9039 12.1663L33.3318 7.83999C33.2622 7.72 33.2256 7.5839 33.2256 7.44536C33.2256 7.30681 33.2622 7.17071 33.3318 7.05073L37.2017 0.344934C37.255 0.2349 37.3383 0.14206 37.4422 0.0770868C37.5461 0.0121138 37.6663 -0.0223541 37.789 -0.0223541C37.9116 -0.0223541 38.0318 0.0121138 38.1357 0.0770868C38.2396 0.14206 38.3229 0.2349 38.3762 0.344934L75.4898 63.8775C75.5586 63.9862 75.5977 64.1109 75.6031 64.2392C75.6085 64.3675 75.5802 64.495 75.5208 64.6091C75.4614 64.7232 75.3732 64.8198 75.2647 64.8894C75.1563 64.959 75.0314 64.9991 74.9026 65.0058" fill="#000147"/>
<path d="M48.8114 44.3565H43.9197C43.7908 44.3632 43.666 44.4033 43.5575 44.4729C43.4491 44.5425 43.3608 44.6391 43.3014 44.7532C43.2421 44.8672 43.2137 44.9948 43.2192 45.1231C43.2246 45.2514 43.2636 45.3761 43.3324 45.4848L43.6789 46.0694C43.7477 46.1781 43.7867 46.3028 43.7921 46.4311C43.7976 46.5595 43.7692 46.687 43.7099 46.801C43.6505 46.9151 43.5622 47.0117 43.4538 47.0813C43.3453 47.1509 43.2205 47.1911 43.0916 47.1978H31.6639C31.5351 47.1911 31.4102 47.1509 31.3018 47.0813C31.1934 47.0117 31.1051 46.9151 31.0457 46.801C30.9864 46.687 30.958 46.5595 30.9634 46.4311C30.9689 46.3028 31.0079 46.1781 31.0767 46.0694L36.814 36.2475C36.8673 36.1375 36.9506 36.0447 37.0545 35.9797C37.1584 35.9147 37.2786 35.8802 37.4013 35.8802C37.524 35.8802 37.6441 35.9147 37.748 35.9797C37.8519 36.0447 37.9353 36.1375 37.9885 36.2475L38.3232 36.8322C38.3819 36.9357 38.4672 37.0217 38.5705 37.0813C38.6737 37.1409 38.7911 37.172 38.9105 37.1713H43.8022C43.931 37.1645 44.0559 37.1244 44.1643 37.0548C44.2728 36.9852 44.3611 36.8886 44.4204 36.7745C44.4798 36.6605 44.5081 36.5329 44.5027 36.4046C44.4973 36.2763 44.4582 36.1516 44.3894 36.0429L37.965 25.1394C37.9118 25.0294 37.8284 24.9365 37.7245 24.8716C37.6207 24.8066 37.5005 24.7721 37.3778 24.7721C37.2551 24.7721 37.1349 24.8066 37.031 24.8716C36.9271 24.9365 36.8438 25.0294 36.7905 25.1394L21.0114 52.2023C20.9426 52.311 20.9035 52.4357 20.8981 52.564C20.8927 52.6923 20.9211 52.8198 20.9804 52.9339C21.0398 53.0479 21.128 53.1446 21.2365 53.2142C21.3449 53.2838 21.4698 53.3239 21.5986 53.3306H53.1922C53.321 53.3239 53.4459 53.2838 53.5543 53.2142C53.6628 53.1446 53.751 53.0479 53.8104 52.9339C53.8698 52.8198 53.8981 52.6923 53.8927 52.564C53.8873 52.4357 53.8482 52.311 53.7794 52.2023L49.3869 44.6955C49.329 44.5909 49.244 44.5037 49.1407 44.4431C49.0374 44.3824 48.9196 44.3505 48.7996 44.3506" fill="#7192A5"/>
<path d="M30.8947 13.1426L34.7352 19.714C34.8037 19.8333 34.8398 19.9683 34.8398 20.1057C34.8398 20.2431 34.8037 20.3781 34.7352 20.4974L8.93188 64.6609C8.87401 64.7655 8.78897 64.8527 8.68567 64.9134C8.58236 64.9741 8.46458 65.006 8.34464 65.0058H0.68114C0.552295 64.9991 0.427456 64.959 0.319012 64.8894C0.210568 64.8198 0.122287 64.7231 0.0629307 64.6091C0.00357397 64.495 -0.0247957 64.3675 -0.0193633 64.2392C-0.0139309 64.1109 0.0251147 63.9862 0.0938992 63.8775L29.7437 13.1426C29.7969 13.0326 29.8803 12.9398 29.9842 12.8748C30.0881 12.8098 30.2083 12.7754 30.3309 12.7754C30.4536 12.7754 30.5738 12.8098 30.6777 12.8748C30.7816 12.9398 30.8649 13.0326 30.9182 13.1426" fill="#2D0A51"/>
<path d="M1.79697 63.8483L5.80783 57.5868C5.86682 57.4919 5.94882 57.4132 6.0463 57.3581C6.14377 57.3029 6.2536 57.273 6.36571 57.2711L56.2812 57.1776C56.4011 57.1774 56.5189 57.2093 56.6222 57.27C56.7255 57.3307 56.8106 57.4179 56.8684 57.5225L60.4858 63.819C60.5546 63.9277 60.5937 64.0524 60.5991 64.1807C60.6045 64.3091 60.5762 64.4366 60.5168 64.5506C60.4574 64.6647 60.3692 64.7613 60.2607 64.8309C60.1523 64.9005 60.0274 64.9406 59.8986 64.9474L2.34898 65.0058C2.21441 65.0017 2.08346 64.9615 1.97004 64.8893C1.85661 64.8171 1.76492 64.7156 1.70471 64.5958C1.6445 64.4759 1.61801 64.342 1.62805 64.2083C1.63809 64.0747 1.68429 63.9462 1.76174 63.8366" fill="#2D0A51"/>
</g>
<defs>
<clipPath id="clip0_57_229">
<rect width="403" height="65" fill="white"/>
</clipPath>
</defs>
</svg>
