<?xml version="1.0" encoding="UTF-8" standalone="no"?>
<!-- Created with Inkscape (http://www.inkscape.org/) -->

<svg
   version="1.1"
   id="svg2"
   xml:space="preserve"
   width="609.56799"
   height="586.00134"
   viewBox="0 0 609.56799 586.00134"
   xmlns="http://www.w3.org/2000/svg"
   xmlns:svg="http://www.w3.org/2000/svg"><defs
     id="defs6"><clipPath
       clipPathUnits="userSpaceOnUse"
       id="clipPath26"><path
         d="M 0,439.501 H 457.176 V 0 H 0 Z"
         id="path24" /></clipPath></defs><g
     id="g8"
     transform="matrix(1.3333333,0,0,-1.3333333,0,586.00133)"><g
       id="g10"
       transform="translate(48.4299,108.0586)"><path
         d="M 0,0 H 11.535 L 5.768,14.886 Z m 22.971,-14.074 h -5.989 l -3.401,8.799 H -2.046 l -3.401,-8.799 h -5.792 l 13.63,34.506 h 6.951 z"
         style="fill:#e6e6e6;fill-opacity:1;fill-rule:nonzero;stroke:none"
         id="path12" /></g><path
       d="M 89.861,104.78 H 75.565 v 4.683 h 14.296 z"
       style="fill:#e6e6e6;fill-opacity:1;fill-rule:nonzero;stroke:none"
       id="path14" /><g
       id="g16"
       transform="translate(123.6252,93.9849)"><path
         d="m 0,0 h -24.672 v 34.506 h 5.57 V 5.274 L 0,5.274 Z"
         style="fill:#e6e6e6;fill-opacity:1;fill-rule:nonzero;stroke:none"
         id="path18" /></g><g
       id="g20"><g
         id="g22"
         clip-path="url(#clipPath26)"><g
           id="g28"
           transform="translate(133.4318,107.8121)"><path
             d="M 0,0 H 12.25 C 11.683,3.672 9.538,5.817 6.261,5.817 2.588,5.817 0.542,3.45 0,0 m 17.524,-1.997 c 0,-0.665 -0.049,-1.331 -0.098,-1.922 H -0.024 C 0.665,-8.159 3.648,-9.933 7,-9.933 c 2.366,0 4.88,0.937 6.827,2.489 l 2.564,-3.672 c -2.884,-2.465 -6.138,-3.327 -9.711,-3.327 -7.074,0 -12.077,4.929 -12.077,12.422 0,7.394 4.805,12.422 11.756,12.422 6.606,0 11.141,-5.028 11.165,-12.398"
             style="fill:#e6e6e6;fill-opacity:1;fill-rule:nonzero;stroke:none"
             id="path30" /></g><g
           id="g32"
           transform="translate(170.3518,93.9849)"><path
             d="m 0,0 h -6.112 l -9.49,23.612 h 5.621 L -3.007,5.348 3.969,23.612 H 9.44 Z"
             style="fill:#e6e6e6;fill-opacity:1;fill-rule:nonzero;stroke:none"
             id="path34" /></g><g
           id="g36"
           transform="translate(188.9836,107.8121)"><path
             d="M 0,0 H 12.25 C 11.683,3.672 9.538,5.817 6.26,5.817 2.588,5.817 0.542,3.45 0,0 m 17.523,-1.997 c 0,-0.665 -0.048,-1.331 -0.098,-1.922 H -0.024 c 0.689,-4.24 3.671,-6.014 7.023,-6.014 2.367,0 4.881,0.937 6.828,2.489 l 2.564,-3.672 c -2.884,-2.465 -6.138,-3.327 -9.711,-3.327 -7.075,0 -12.078,4.929 -12.078,12.422 0,7.394 4.806,12.422 11.756,12.422 6.607,0 11.141,-5.028 11.165,-12.398"
             style="fill:#e6e6e6;fill-opacity:1;fill-rule:nonzero;stroke:none"
             id="path38" /></g><path
           d="m 219.199,93.985 h -5.177 v 35.492 h 5.177 z"
           style="fill:#e6e6e6;fill-opacity:1;fill-rule:nonzero;stroke:none"
           id="path40" /><g
           id="g42"
           transform="translate(273.9875,121.9102)"><path
             d="m 0,0 -4.658,-3.106 c -2.096,3.056 -5.522,4.979 -9.638,4.979 -7.049,0 -12.225,-5.102 -12.225,-12.545 0,-7.444 5.176,-12.546 12.225,-12.546 4.092,0 7.469,1.849 9.612,4.954 l 4.537,-3.327 c -2.934,-4.314 -8.11,-6.975 -14.149,-6.975 -10.598,0 -18.066,7.591 -18.066,17.894 0,10.302 7.468,17.893 18.066,17.893 C -8.158,7.221 -2.711,4.486 0,0"
             style="fill:#e6e6e6;fill-opacity:1;fill-rule:nonzero;stroke:none"
             id="path44" /></g><g
           id="g46"
           transform="translate(284.8547,105.7906)"><path
             d="m 0,0 c 0,-4.141 2.687,-7.566 7.123,-7.566 4.264,0 7.123,3.253 7.123,7.566 0,4.313 -2.859,7.567 -7.123,7.567 C 2.687,7.567 0,4.141 0,0 m 19.077,-11.806 h -5.151 v 2.834 c -1.627,-2.094 -4.068,-3.45 -7.419,-3.45 -6.606,0 -11.806,5.201 -11.806,12.422 0,7.222 5.2,12.422 11.806,12.422 3.351,0 5.792,-1.38 7.419,-3.475 v 2.859 h 5.151 z"
             style="fill:#e6e6e6;fill-opacity:1;fill-rule:nonzero;stroke:none"
             id="path48" /></g><g
           id="g50"
           transform="translate(317.9533,105.7906)"><path
             d="m 0,0 c 0,-4.313 2.859,-7.566 7.123,-7.566 4.437,0 7.123,3.425 7.123,7.566 0,4.141 -2.686,7.567 -7.123,7.567 C 2.859,7.567 0,4.313 0,0 m 19.546,0 c 0,-7.221 -5.201,-12.422 -11.807,-12.422 -3.351,0 -5.767,1.356 -7.393,3.426 v -12.669 h -5.152 v 33.471 h 5.152 v -2.81 c 1.626,2.07 4.042,3.426 7.393,3.426 6.606,0 11.807,-5.2 11.807,-12.422"
             style="fill:#e6e6e6;fill-opacity:1;fill-rule:nonzero;stroke:none"
             id="path52" /></g><path
           d="m 350.19,93.985 h -5.177 v 23.612 h 5.177 z m 1.035,31.77 c 0,-2.045 -1.603,-3.599 -3.649,-3.599 -2.045,0 -3.597,1.554 -3.597,3.599 0,2.045 1.552,3.648 3.597,3.648 2.046,0 3.649,-1.603 3.649,-3.648"
           style="fill:#e6e6e6;fill-opacity:1;fill-rule:nonzero;stroke:none"
           id="path54" /><g
           id="g56"
           transform="translate(375.5012,112.9141)"><path
             d="m 0,0 h -9.046 v -10.278 c 0,-3.18 1.676,-4.412 3.746,-4.412 1.602,0 3.353,0.715 4.757,1.602 l 2.046,-4.116 c -1.898,-1.282 -4.288,-2.341 -7.246,-2.341 -5.349,0 -8.479,2.883 -8.479,9.168 V 0 h -4.708 v 4.683 h 4.708 v 7.147 h 5.176 V 4.683 l 9.046,0 z"
             style="fill:#e6e6e6;fill-opacity:1;fill-rule:nonzero;stroke:none"
             id="path58" /></g><g
           id="g60"
           transform="translate(386.5168,105.7906)"><path
             d="m 0,0 c 0,-4.141 2.687,-7.566 7.123,-7.566 4.264,0 7.123,3.253 7.123,7.566 0,4.313 -2.859,7.567 -7.123,7.567 C 2.687,7.567 0,4.141 0,0 m 19.077,-11.806 h -5.151 v 2.834 c -1.627,-2.094 -4.068,-3.45 -7.419,-3.45 -6.606,0 -11.807,5.201 -11.807,12.422 0,7.222 5.201,12.422 11.807,12.422 3.351,0 5.792,-1.38 7.419,-3.475 v 2.859 h 5.151 z"
             style="fill:#e6e6e6;fill-opacity:1;fill-rule:nonzero;stroke:none"
             id="path62" /></g><path
           d="m 419.986,93.985 h -5.177 v 35.492 h 5.177 z"
           style="fill:#e6e6e6;fill-opacity:1;fill-rule:nonzero;stroke:none"
           id="path64" /><g
           id="g66"
           transform="translate(353.0149,160.8892)"><path
             d="m 0,0 h -25.738 c -0.783,0 -1.51,0.435 -1.927,1.152 l -102.956,176.768 -0.112,-0.188 -8.634,14.549 c -0.477,0.805 -0.484,1.836 -0.016,2.647 l 12.989,22.549 c 0.89,1.545 2.964,1.551 3.861,0.01 L 1.928,3.791 C 2.886,2.145 1.795,0 0,0"
             style="fill:#999999;fill-opacity:1;fill-rule:nonzero;stroke:none"
             id="path68" /></g><g
           id="g70"
           transform="translate(265.5608,230.3389)"><path
             d="m 0,0 h -16.395 c -1.794,0 -2.885,-2.146 -1.926,-3.792 l 1.159,-1.989 c 0.958,-1.646 -0.133,-3.791 -1.928,-3.791 h -38.417 c -1.795,0 -2.886,2.145 -1.927,3.791 l 19.208,32.979 c 0.895,1.536 2.96,1.536 3.855,0 l 1.119,-1.921 c 0.418,-0.716 1.146,-1.152 1.928,-1.152 h 16.394 c 1.795,0 2.886,2.146 1.927,3.792 L -36.371,64.6 c -0.895,1.536 -2.96,1.536 -3.855,0 l -52.998,-90.99 c -0.958,-1.645 0.133,-3.791 1.928,-3.791 H 14.7 c 1.795,0 2.886,2.146 1.927,3.791 L 1.928,-1.152 C 1.51,-0.435 0.782,0 0,0"
             style="fill:#e6e6e6;fill-opacity:1;fill-rule:nonzero;stroke:none"
             id="path72" /></g><g
           id="g74"
           transform="translate(205.4826,335.3213)"><path
             d="m 0,0 12.873,-22.099 c 0.47,-0.806 0.47,-1.833 0,-2.639 l -86.522,-148.543 c -0.417,-0.717 -1.145,-1.151 -1.927,-1.151 h -25.745 c -1.796,0 -2.887,2.145 -1.928,3.791 L -3.854,0 C -2.96,1.536 -0.895,1.536 0,0"
             style="fill:#cccccc;fill-opacity:1;fill-rule:nonzero;stroke:none"
             id="path76" /></g><g
           id="g78"
           transform="translate(107.9084,164.7715)"><path
             d="m 0,0 13.438,21.051 c 0.424,0.666 1.124,1.064 1.87,1.065 l 167.358,0.307 c 0.785,0.001 1.516,-0.436 1.934,-1.156 L 196.869,0.104 c 0.953,-1.645 -0.136,-3.785 -1.928,-3.787 L 1.876,-3.878 C 0.036,-3.88 -1.047,-1.64 0,0"
             style="fill:#cccccc;fill-opacity:1;fill-rule:nonzero;stroke:none"
             id="path80" /></g></g></g></g></svg>
